<?xml version="1.0" encoding="utf-8"?>
<!-- Generator: Adobe Illustrator 23.0.1, SVG Export Plug-In . SVG Version: 6.00 Build 0)  -->
<svg version="1.1" xmlns="http://www.w3.org/2000/svg" xmlns:xlink="http://www.w3.org/1999/xlink" x="0px" y="0px"
	 viewBox="0 0 848.89 132.6" style="enable-background:new 0 0 848.89 132.6;" xml:space="preserve">
<style type="text/css">
	.st0{fill:#FFFFFF;}
</style>
<g id="icon_4">
	<g>
		<path class="st0" d="M75.46,63.6H25.88C11.59,63.6,0,52.01,0,37.72v0c0-14.29,11.59-25.88,25.88-25.88h101.34v0
			C127.22,40.42,104.04,63.6,75.46,63.6z"/>
		<path class="st0" d="M51.76,69h49.57c14.29,0,25.88,11.59,25.88,25.88v0c0,14.29-11.59,25.88-25.88,25.88H0v0
			C0,92.18,23.17,69,51.76,69z"/>
	</g>
</g>
<g id="black-text">
	<g>
		<path class="st0" d="M192.34,118.36l9.67-21.45c10.38,7.56,25.85,12.84,40.62,12.84c16.88,0,23.74-5.63,23.74-13.19
			c0-23.04-71.57-7.21-71.57-52.93c0-20.92,16.88-38.33,51.87-38.33c15.47,0,31.3,3.69,42.73,10.9l-8.79,21.63
			c-11.43-6.51-23.21-9.67-34.11-9.67c-16.88,0-23.39,6.33-23.39,14.07c0,22.68,71.57,7.03,71.57,52.22
			c0,20.57-17.06,38.16-52.23,38.16C222.93,132.61,203.24,126.8,192.34,118.36z"/>
		<path class="st0" d="M407.57,35.89v94.6h-26.03v-11.25c-7.21,8.26-17.76,12.66-29.37,12.66c-23.74,0-40.44-13.36-40.44-42.55
			V35.89h27.43V85.3c0,15.83,7.03,22.86,19.17,22.86c12.66,0,21.8-8.09,21.8-25.5V35.89H407.57z"/>
		<path class="st0" d="M433.06,0.02h27.43v130.47h-27.43V0.02z"/>
		<path class="st0" d="M581.3,35.89v94.6h-26.02v-11.25c-7.21,8.26-17.76,12.66-29.37,12.66c-23.74,0-40.44-13.36-40.44-42.55V35.89
			h27.43V85.3c0,15.83,7.03,22.86,19.17,22.86c12.66,0,21.8-8.09,21.8-25.5V35.89H581.3z"/>
		<path class="st0" d="M703.51,76.34v54.16h-27.43V80.56c0-15.3-7.03-22.33-19.17-22.33c-13.19,0-22.68,8.09-22.68,25.5v46.77H606.8
			V0.02h27.43v45.72c7.39-7.39,17.94-11.25,30.07-11.25C686.63,34.48,703.51,47.5,703.51,76.34z"/>
		<path class="st0" d="M823.61,35.89v94.6h-26.02v-11.25c-7.21,8.26-17.76,12.66-29.37,12.66c-23.74,0-40.44-13.36-40.44-42.55
			V35.89h27.43V85.3c0,15.83,7.03,22.86,19.17,22.86c12.66,0,21.8-8.09,21.8-25.5V35.89H823.61z"/>
	</g>
	<g>
		<g>
			<path class="st0" d="M848.88,12.66c0,7.16-5.58,12.78-12.74,12.78s-12.67-5.62-12.67-12.71c0-7.09,5.51-12.71,12.74-12.71
				C843.44,0.02,848.88,5.49,848.88,12.66z M846.43,12.66c0-5.87-4.28-10.29-10.22-10.29s-10.26,4.54-10.26,10.37
				c0,5.83,4.32,10.37,10.19,10.37S846.43,18.52,846.43,12.66z M840.2,15.03l3.06,4.68h-3.74l-2.63-4.03h-0.14h-2.34v4.03h-3.74
				V5.75h6.08c3.82,0,6.08,1.94,6.08,4.97C842.83,12.76,841.89,14.24,840.2,15.03z M836.49,12.87c1.69,0,2.66-0.79,2.66-2.16
				c0-1.4-0.97-2.2-2.66-2.2h-2.12v4.36H836.49z"/>
		</g>
	</g>
</g>
</svg>
